<svg width="823" height="111" viewBox="0 0 823 111" fill="none" xmlns="http://www.w3.org/2000/svg">
<path d="M7.38822e-05 108.378V1.82657H22.6803L53.7324 47.7959L84.7845 1.82657H107.313V108.378H86.6111V34.4008L53.7324 82.8056L20.8537 34.5531V108.378H7.38822e-05ZM204.338 108.378L163.545 1.82657H184.398L226.41 108.378H204.338ZM120.163 108.378L162.175 1.82657H183.028L142.234 108.378H120.163ZM139.951 84.9366V66.5185H206.774V84.9366H139.951ZM282.346 110.205C271.995 110.205 262.811 107.871 254.795 103.203C246.778 98.4331 240.486 91.9386 235.92 83.7189C231.353 75.3977 229.07 65.8589 229.07 55.1023C229.07 44.3456 231.353 34.8575 235.92 26.6378C240.486 18.3167 246.727 11.8221 254.642 7.15414C262.659 2.3847 271.843 -1.87328e-05 282.193 -1.87328e-05C289.5 -1.87328e-05 296.299 1.31919 302.59 3.9576C308.882 6.49454 314.362 10.097 319.03 14.765C323.799 19.3314 327.452 24.6083 329.989 30.5954L310.658 37.7496C308.933 33.9949 306.65 30.7477 303.808 28.0078C300.967 25.1664 297.72 22.9846 294.066 21.4625C290.413 19.8388 286.456 19.027 282.193 19.027C276.003 19.027 270.473 20.5999 265.602 23.7457C260.832 26.79 257.078 31.0013 254.338 36.3797C251.7 41.758 250.38 47.9988 250.38 55.1023C250.38 62.2057 251.75 68.4973 254.49 73.9771C257.23 79.3554 261.035 83.6174 265.906 86.7632C270.777 89.8076 276.359 91.3297 282.65 91.3297C287.014 91.3297 290.971 90.5179 294.523 88.8943C298.176 87.1691 301.373 84.8352 304.113 81.8923C306.954 78.9495 309.237 75.55 310.962 71.6938L330.294 78.6958C327.757 84.8859 324.104 90.3657 319.334 95.1351C314.666 99.9046 309.187 103.608 302.895 106.247C296.603 108.885 289.754 110.205 282.346 110.205ZM358.09 81.4357L355.654 55.2545L405.581 1.82657H432.524L358.09 81.4357ZM345.608 108.378V1.82657H366.157V108.378H345.608ZM408.473 108.378L366.005 54.189L381.075 41.7072L434.198 108.378H408.473ZM495.696 110.205C484.939 110.205 475.4 107.871 467.079 103.203C458.859 98.4331 452.416 91.9386 447.748 83.7189C443.08 75.3977 440.746 65.9096 440.746 55.2545C440.746 44.3964 443.08 34.8575 447.748 26.6378C452.416 18.3167 458.809 11.8221 466.927 7.15414C475.147 2.48618 484.584 0.152196 495.239 0.152196C505.996 0.152196 515.433 2.53692 523.551 7.30636C531.771 11.9743 538.215 18.4689 542.883 26.79C547.551 35.0097 549.885 44.4979 549.885 55.2545C549.885 65.9096 547.551 75.3977 542.883 83.7189C538.316 91.9386 531.923 98.4331 523.704 103.203C515.585 107.871 506.249 110.205 495.696 110.205ZM495.696 91.1775C502.19 91.1775 507.873 89.6553 512.744 86.611C517.716 83.4652 521.573 79.2032 524.312 73.8248C527.154 68.4465 528.574 62.2564 528.574 55.2545C528.574 48.151 527.154 41.9102 524.312 36.5319C521.471 31.1536 517.564 26.9422 512.592 23.8979C507.619 20.7521 501.835 19.1792 495.239 19.1792C488.846 19.1792 483.113 20.7521 478.039 23.8979C473.066 26.9422 469.159 31.1536 466.318 36.5319C463.477 41.9102 462.056 48.151 462.056 55.2545C462.056 62.2564 463.477 68.4465 466.318 73.8248C469.159 79.2032 473.117 83.4652 478.191 86.611C483.265 89.6553 489.1 91.1775 495.696 91.1775ZM566.797 108.378V1.82657H606.374C613.883 1.82657 620.53 3.298 626.314 6.24085C632.098 9.18369 636.614 13.2428 639.861 18.4181C643.108 23.492 644.732 29.4284 644.732 36.2274C644.732 42.925 643.007 48.9121 639.557 54.189C636.208 59.3643 631.591 63.4234 625.705 66.3663C619.819 69.2076 613.122 70.6283 605.613 70.6283H587.651V108.378H566.797ZM625.401 108.378L600.742 65.6052L616.724 54.189L648.994 108.378H625.401ZM587.651 51.6013H606.526C609.672 51.6013 612.462 50.9417 614.898 49.6225C617.435 48.3033 619.413 46.4767 620.834 44.1427C622.356 41.8087 623.117 39.1703 623.117 36.2274C623.117 31.6609 621.443 27.957 618.094 25.1157C614.847 22.2743 610.636 20.8536 605.46 20.8536H587.651V51.6013ZM664.905 108.378V1.82657H732.337V20.8536H685.759V45.056H725.944V63.6264H685.759V89.3509H732.946V108.378H664.905ZM754.541 108.378V1.82657H821.972V20.8536H775.394V45.056H815.579V63.6264H775.394V89.3509H822.581V108.378H754.541Z" fill="black"/>
</svg>
